<svg style="display:none" xmlns="http://www.w3.org/2000/svg" aria-hidden="true">
  <!-- Action icons -->
  <symbol id="icon-x" viewBox="0 0 24 24" fill="none" stroke="currentColor" stroke-linecap="round" stroke-linejoin="round">
    <path d="M6 6l12 12" />
    <path d="M18 6l-12 12" />
  </symbol>
  <symbol id="icon-download" viewBox="0 0 24 24" fill="none" stroke="currentColor" stroke-linecap="round" stroke-linejoin="round">
    <path d="M12 4v10" />
    <path d="M8 10l4 4 4-4" />
    <path d="M4 18h16" />
  </symbol>
  <symbol id="icon-external" viewBox="0 0 24 24" fill="none" stroke="currentColor" stroke-linecap="round" stroke-linejoin="round">
    <path d="M14 4h6v6" />
    <path d="M10 14l10-10" />
    <path d="M20 14v6h-16v-16h6" />
  </symbol>
  <symbol id="icon-heart" viewBox="0 0 24 24" fill="none" stroke="currentColor" stroke-linecap="round" stroke-linejoin="round">
    <path d="M12 20s-6-4.4-8.5-7.2c-2.2-2.4-2-6.2.7-8.2 2.4-1.7 5.6-.9 7.3 1.3 1.7-2.2 4.9-3 7.3-1.3 2.7 2 2.9 5.8.7 8.2-2.5 2.8-8.5 7.2-8.5 7.2z" />
  </symbol>
  <symbol id="icon-info" viewBox="0 0 24 24" fill="none" stroke="currentColor" stroke-linecap="round" stroke-linejoin="round">
    <circle cx="12" cy="12" r="9" />
    <path d="M12 10v6" />
    <circle cx="12" cy="7" r="1" />
  </symbol>
  <symbol id="icon-settings" viewBox="0 0 24 24" fill="none" stroke="currentColor" stroke-linecap="round" stroke-linejoin="round">
    <path d="M4 7h10" />
    <circle cx="16" cy="7" r="2" />
    <path d="M4 17h6" />
    <circle cx="14" cy="17" r="2" />
    <path d="M18 17h2" />
    <path d="M4 12h2" />
    <circle cx="8" cy="12" r="2" />
    <path d="M12 12h8" />
  </symbol>

  <!-- Status & visibility -->
  <symbol id="icon-token" viewBox="0 0 24 24" fill="none" stroke="currentColor" stroke-linecap="round" stroke-linejoin="round">
    <circle cx="12" cy="12" r="9" />
    <path d="M8 8h8" />
    <path d="M12 8v8" />
  </symbol>
  <symbol id="icon-eye-open" viewBox="0 0 24 24" fill="none" stroke="currentColor" stroke-linecap="round" stroke-linejoin="round">
    <path d="M2 12s4-6 10-6 10 6 10 6-4 6-10 6-10-6-10-6z" />
    <circle cx="12" cy="12" r="3" />
  </symbol>
  <symbol id="icon-eye-closed" viewBox="0 0 24 24" fill="none" stroke="currentColor" stroke-linecap="round" stroke-linejoin="round">
    <path d="M2 12s4-6 10-6 10 6 10 6-4 6-10 6-10-6-10-6z" />
    <circle cx="12" cy="12" r="3" />
    <path d="M4 4l16 16" />
  </symbol>

  <!-- Sharing -->
  <symbol id="icon-share" viewBox="0 0 24 24" fill="none" stroke="currentColor" stroke-linecap="round" stroke-linejoin="round">
    <circle cx="6" cy="12" r="2" />
    <circle cx="18" cy="6" r="2" />
    <circle cx="18" cy="18" r="2" />
    <path d="M8 11l8-4" />
    <path d="M8 13l8 4" />
  </symbol>
</svg>
