<svg xmlns="http://www.w3.org/2000/svg" viewBox="32 0 210 210" width="210" height="210" aria-hidden="true">
<!--HEAD (unchanged)-->
  <g transform="translate(76 10) scale(0.4)">
<!--Base head cluster (3 black segments)-->
    <g transform="translate(0,256) scale(0.05,-0.05)" fill="#000000" stroke="none">
      <path d="M2320 5098 c-424 -39 -840 -188 -1195 -429 -105 -71 -295 -224 -295
      -237 0 -4 102 -109 227 -234 193 -191 234 -227 265 -233 46 -9 90 1 123 26 23
      19 25 26 25 107 0 170 56 308 170 422 361 362 980 107 980 -403 0 -110 -18
      -186 -65 -276 -70 -133 -181 -226 -327 -275 -63 -21 -95 -26 -181 -26 l-105 0
      -20 -32 c-11 -18 -21 -46 -23 -63 -6 -85 -18 -70 333 -422 l332 -333 336 333
      c386 384 382 382 525 382 101 0 150 -18 224 -82 66 -56 74 -81 76 -218 2 -158
      23 -214 109 -300 122 -121 271 -154 430 -94 79 29 166 112 208 197 31 62 33
      74 33 167 0 91 -3 106 -31 165 -41 86 -108 153 -192 193 -63 30 -75 32 -191
      34 -111 2 -128 5 -166 27 -87 52 -139 151 -140 271 0 135 16 160 282 427 l227
      227 -20 22 c-35 41 -218 182 -329 255 -471 310 -1058 455 -1625 402z"/>
      <path d="M1957 4499 c-189 -44 -324 -238 -303 -431 4 -33 2 -75 -4 -99 -14
      -52 -79 -123 -145 -157 -44 -23 -62 -27 -145 -27 -143 0 -152 6 -431 282
      l-236 234 -53 -57 c-104 -115 -232 -296 -319 -452 -343 -618 -414 -1367 -192
      -2032 113 -339 294 -655 509 -890 l51 -55 221 220 c122 121 228 232 236 247
      16 31 18 95 5 131 -19 50 -36 57 -135 57 -109 0 -186 18 -275 65 -90 48 -151
      103 -207 186 -66 100 -96 199 -97 319 -1 167 56 303 178 419 114 108 244 161
      395 161 331 0 593 -276 578 -609 l-3 -75 47 -24 c40 -20 55 -23 95 -17 47 7
      55 14 378 336 l330 329 -332 332 c-284 285 -336 341 -359 391 -52 115 -40 235
      33 334 65 88 86 97 243 103 121 5 142 9 191 32 193 95 277 308 200 510 -66
      172 -273 280 -454 237z"/>
      <path d="M910 2424 c-285 -77 -391 -426 -194 -644 82 -90 184 -130 335 -130
      54 0 110 -5 126 -11 41 -15 101 -76 131 -134 24 -44 27 -61 27 -150 0 -149 -4
      -155 -282 -436 l-234 -236 53 -48 c166 -150 414 -309 635 -409 887 -398 1932
      -257 2674 362 52 44 100 86 107 94 9 12 -28 54 -216 240 -193 192 -233 227
      -265 233 -48 9 -99 -1 -129 -24 -21 -18 -23 -27 -24 -118 -1 -161 -49 -284
      -154 -397 -112 -119 -229 -174 -390 -183 -176 -10 -307 41 -435 171 -148 149
      -201 323 -160 521 57 270 282 452 569 458 l100 2 23 34 c25 37 30 91 13 138
      -6 15 -156 173 -333 350 l-322 323 -330 -329 c-372 -371 -386 -381 -515 -389
      -94 -5 -173 22 -238 82 -67 61 -81 102 -81 227 1 82 -4 116 -21 161 -71 190
      -274 295 -470 242z"/>
    </g>
<!--Detached right-side piece (unchanged, offset 1536)-->
    <g transform="translate(0,256) scale(0.05,-0.05) translate(1536,40)" fill="#000000" stroke="none">
      <path d="M4198 4062 c-244 -245 -255 -260 -229 -334 26 -75 32 -78 137 -78
      177 0 294 -48 415 -169 117 -118 169 -240 169 -401 0 -162 -53 -293 -165 -406
      -232 -233 -589 -233 -821 0 -113 114 -164 241 -164 412 0 88 -1 94 -26 113
      -14 11 -42 23 -61 27 -75 14 -89 4 -433 -341 l-325 -325 331 -332 c237 -239
      337 -346 352 -378 61 -129 42 -270 -50 -375 -52 -60 -79 -69 -223 -75 -113 -5
      -138 -9 -188 -32 -160 -74 -258 -254 -228 -420 28 -158 141 -283 293 -324 180
      -48 372 43 454 213 25 52 28 73 33 194 6 126 8 138 33 177 58 88 165 136 286
      130 124 -6 145 -20 409 -281 205 -203 234 -228 248 -217 30 25 173 208 233
      298 220 329 360 704 414 1112 16 122 16 488 0 610 -54 408 -194 783 -414 1112
      -60 90 -200 269 -235 300 -18 17 -27 10 -245 -210z"/>
    </g>
  </g>
<!--TORSO (translated 4 units down)-->
  <g transform="translate(0 4)">
    <path fill="#000000" d="M64 170c0-34 28-58 64-58s64 24 64 58v26H64Z"/>
  </g>
</svg>
